<svg width="32" height="32" viewBox="0 0 32 32" fill="none"
    xmlns="http://www.w3.org/2000/svg">
    <path d="M16 5.33325C16.7364 5.33325 17.3333 5.93021 17.3333 6.66659V14.6666H25.3333C26.0697 14.6666 26.6666 15.2635 26.6666 15.9999C26.6666 16.7363 26.0697 17.3333 25.3333 17.3333H17.3333V25.3333C17.3333 26.0696 16.7364 26.6666 16 26.6666C15.2636 26.6666 14.6666 26.0696 14.6666 25.3333V17.3333H6.66665C5.93027 17.3333 5.33331 16.7363 5.33331 15.9999C5.33331 15.2635 5.93027 14.6666 6.66665 14.6666H14.6666V6.66659C14.6666 5.93021 15.2636 5.33325 16 5.33325Z" fill="#363636"/>
</svg>
